<svg width="1399" height="340" viewBox="0 0 1399 340" fill="none" xmlns="http://www.w3.org/2000/svg">
<path d="M586.426 286.14C586.568 286.249 586.693 286.225 586.8 286.068C591.309 279.726 596.033 273.643 600.969 267.82C612.201 254.564 633.473 256.662 645.684 266.373C657.326 275.645 662.749 287.273 661.954 301.259C661.919 301.983 662.203 302.531 662.809 302.905C684.703 316.396 698.697 329.011 721.5 339.5H778H830.144C844.047 331.5 841.711 331.208 855.109 320.791C855.269 320.664 855.4 320.501 855.49 320.315C855.58 320.13 855.627 319.926 855.629 319.719C855.631 319.512 855.586 319.308 855.5 319.121C855.413 318.934 855.285 318.769 855.127 318.639L836.792 303.755C836.359 303.4 835.86 303.138 835.325 302.982C834.79 302.827 834.229 302.782 833.677 302.851C830.449 303.249 827.12 303.381 823.691 303.249C779.403 301.621 736.041 288.184 697.573 264.908C673.97 250.621 653.018 235.653 634.719 220.003C591.41 182.947 548.582 143.739 504.098 107.37C480.299 87.9289 457.514 68.2706 434.195 48.8473C420.5 37.4538 406.628 27.0007 392.577 17.488C380.17 9.09658 363.473 -0.0906296 348.396 0.542343C340.03 0.904045 331.289 5.24448 324.276 9.96466C309.834 19.6582 295.842 31.3712 282.302 45.1037C244.137 83.8056 208.803 118.486 176.299 149.147C171.078 154.078 165.981 158.943 161.008 163.741C119.07 204.179 69.1393 239.933 15.7018 258.651C10.2192 260.568 5.85799 264.366 0.713608 267.042C0.0490494 267.392 -0.0221558 267.838 0.5 268.381C14.5269 283.12 32.6657 294.712 53.6171 288.654C65.2469 285.278 78.3066 280.727 92.7964 275C93.3422 274.783 93.544 274.391 93.4016 273.824C90.7077 262.6 91.6215 251.296 96.1429 239.915C103.566 221.233 125.656 211.522 143.617 220.202C152.731 224.603 159.383 232.355 163.572 243.46C167.666 254.286 169.897 263.817 170.265 272.052C170.3 272.727 170.645 273.137 171.297 273.282C197.874 279.105 220.925 294.911 241.592 312.11C260.9 328.182 277 335.022 296 339.5H396H472C472 339.5 472 339.5 480.263 332.89C484.559 329.417 489.424 326.186 494.859 323.196C494.961 323.142 495.049 323.065 495.118 322.972C495.187 322.879 495.235 322.772 495.258 322.659C495.282 322.545 495.281 322.427 495.255 322.314C495.229 322.2 495.179 322.094 495.109 322.003C486.208 310.657 483.871 297.69 488.095 283.102C490.659 274.288 495.75 268.206 503.368 264.854C526.224 254.799 539.201 268.435 551.234 285.561C551.341 285.706 551.472 285.724 551.626 285.616H551.644C551.869 285.459 551.899 285.266 551.733 285.037C545.823 276.7 541.106 267.241 539.628 257.15C537.314 241.344 538.881 224.76 544.773 209.822C557.002 178.806 595.042 180.018 607.288 209.586C612.967 223.277 610.955 238.305 604.601 252.086C598.881 264.456 592.787 275.651 586.319 285.67C586.201 285.851 586.23 286.007 586.408 286.14H586.426ZM1003.71 75.0886C989.183 65.7567 974.409 63.8217 959.385 69.2833C937.455 77.2588 918.568 91.564 900.518 106.177C878.802 123.743 856.83 140.972 834.603 157.863C811.551 175.388 790.083 194.088 767.921 212.353C766.058 213.897 764.011 215.506 761.78 217.182C761.389 217.484 761.353 217.815 761.673 218.177C792.018 253.129 825.673 285.212 862.639 314.425C863.232 314.895 863.837 314.901 864.454 314.443C873.485 307.631 881.685 302.308 889.055 298.474C909.822 287.683 932.916 282.614 958.335 283.265C959.901 283.313 961.29 282.782 962.5 281.673C992.144 254.377 1017.81 231.192 1039.51 212.118C1057.77 196.071 1078.56 179.445 1101.88 162.24C1102.48 161.794 1102.48 161.348 1101.88 160.902C1079.88 144.571 1062.72 126.812 1042.6 106.629C1030.5 94.4998 1017.53 83.9864 1003.71 75.0886ZM1214 339.5C1209.92 309.491 1213.85 291.499 1222.3 262.865C1232.25 229.136 1255.32 205.409 1291.63 202.841C1334.78 199.766 1357.6 244.726 1368.41 279.937C1368.44 280.042 1368.5 280.138 1368.57 280.219C1368.64 280.3 1368.73 280.365 1368.83 280.408C1368.93 280.451 1369.03 280.471 1369.14 280.468C1369.24 280.465 1369.35 280.438 1369.44 280.389L1389.63 270.225C1389.9 270.088 1390.13 269.868 1390.29 269.594C1390.44 269.319 1390.51 269.004 1390.48 268.688C1387.8 239.27 1390.48 210.653 1398.51 182.839C1398.55 182.715 1398.54 182.581 1398.49 182.457C1398.44 182.333 1398.36 182.226 1398.24 182.152C1370.44 163.741 1343.02 143.034 1317.36 123.647C1307.61 116.304 1296.17 108.92 1283.04 101.493C1265.29 91.4736 1242.84 81.3279 1223.16 91.0034C1218.7 93.1977 1214.36 95.621 1210.11 98.2735C1161.87 128.512 1115.27 162.005 1070.27 196.403C1058.49 205.385 1047.07 214.662 1035.98 224.235C1013.45 243.695 990.697 263.269 967.734 282.957C967.659 283.017 967.603 283.099 967.574 283.192C967.546 283.284 967.544 283.383 967.571 283.476C967.598 283.569 967.651 283.652 967.725 283.715C967.798 283.777 967.888 283.815 967.983 283.825C991.248 286.43 1011.59 298.836 1028.93 313.593C1039.7 322.756 1050.42 331 1061.5 339.5H1143H1157.5H1172H1214ZM580.676 207.163C581.483 207.501 581.899 207.229 581.923 206.349L581.994 203.98C582.006 203.341 581.709 202.913 581.104 202.696C580.57 202.503 580.018 202.431 579.448 202.479C578.831 202.539 578.493 202.877 578.434 203.492C578.256 205.252 579.003 206.476 580.676 207.163ZM592.87 207.923C592.728 208.489 592.733 209.038 592.888 209.568C592.944 209.774 593.064 209.956 593.23 210.089C593.396 210.222 593.6 210.3 593.813 210.31C594.252 210.322 594.585 210.153 594.81 209.803C595.036 209.466 595.083 209.092 594.953 208.682C594.786 208.188 594.502 207.79 594.098 207.489C593.481 207.018 593.072 207.163 592.87 207.923ZM572.257 213.095C572.257 212.447 572.004 211.826 571.553 211.369C571.102 210.911 570.491 210.654 569.854 210.654C569.216 210.654 568.605 210.911 568.154 211.369C567.704 211.826 567.451 212.447 567.451 213.095C567.451 213.742 567.704 214.363 568.154 214.821C568.605 215.279 569.216 215.536 569.854 215.536C570.491 215.536 571.102 215.279 571.553 214.821C572.004 214.363 572.257 213.742 572.257 213.095ZM1307.23 307.661C1306.92 307.673 1306.63 307.607 1306.36 307.462C1305.8 307.173 1305.43 306.721 1305.25 306.106C1303.35 299.74 1300.61 291.421 1294.59 288.184C1287.47 284.332 1280.95 289.034 1277.79 295.617C1272.65 306.287 1270.69 317.053 1271.93 327.916C1272.04 328.833 1272.5 329.092 1273.32 328.694L1357.64 287.062C1358.33 286.725 1358.54 286.188 1358.28 285.453C1347.99 257.132 1329.91 211.775 1293.41 213.312C1267.54 214.397 1248.43 226.357 1236.08 249.193C1232.06 256.619 1229.04 264.155 1227.02 271.799C1220.29 297.395 1217.11 312.578 1219 339.5H1249.5L1267.28 331.823C1267.86 331.57 1268.1 331.124 1267.98 330.484C1265.37 316.764 1267.23 303.809 1273.57 291.62C1276.88 285.266 1281.9 281.926 1288.64 281.601C1301.44 280.986 1309.86 294.405 1308.56 306.377C1308.53 306.716 1308.38 307.031 1308.13 307.266C1307.89 307.502 1307.57 307.642 1307.23 307.661ZM597.355 226.409C597.761 226.474 598.193 226.255 598.557 225.802C598.921 225.348 599.186 224.696 599.295 223.99C599.349 223.641 599.363 223.288 599.336 222.953C599.308 222.618 599.241 222.306 599.137 222.037C599.033 221.767 598.895 221.544 598.73 221.38C598.565 221.217 598.376 221.117 598.175 221.085C597.77 221.02 597.337 221.239 596.973 221.692C596.609 222.146 596.344 222.797 596.235 223.504C596.181 223.853 596.167 224.206 596.195 224.541C596.222 224.876 596.289 225.188 596.393 225.457C596.497 225.727 596.635 225.95 596.8 226.113C596.966 226.277 597.154 226.377 597.355 226.409ZM583.378 225.456C583.725 225.145 583.921 224.69 583.924 224.19C583.926 223.691 583.735 223.188 583.391 222.792C583.048 222.396 582.581 222.14 582.092 222.08C581.604 222.02 581.135 222.161 580.788 222.472C580.441 222.783 580.244 223.238 580.242 223.738C580.239 224.237 580.431 224.74 580.774 225.136C581.118 225.532 581.585 225.788 582.073 225.848C582.561 225.908 583.03 225.767 583.378 225.456ZM127.093 237.049C127.284 236.86 127.427 236.625 127.514 236.358C127.602 236.09 127.631 235.795 127.602 235.489C127.572 235.184 127.484 234.874 127.341 234.576C127.199 234.279 127.006 234.001 126.773 233.757C126.302 233.266 125.698 232.946 125.092 232.867C124.486 232.789 123.929 232.96 123.544 233.341C123.353 233.53 123.209 233.764 123.122 234.032C123.035 234.299 123.005 234.594 123.035 234.9C123.064 235.206 123.153 235.516 123.295 235.813C123.437 236.11 123.63 236.389 123.863 236.632C124.334 237.124 124.939 237.444 125.544 237.522C126.15 237.6 126.707 237.43 127.093 237.049ZM568.948 238.642C569.159 238.541 569.339 238.376 569.477 238.159C569.615 237.942 569.708 237.677 569.751 237.377C569.795 237.078 569.788 236.75 569.73 236.414C569.673 236.078 569.566 235.739 569.416 235.417C569.113 234.766 568.654 234.224 568.138 233.909C567.622 233.594 567.092 233.532 566.666 233.737C566.454 233.838 566.274 234.002 566.137 234.219C565.999 234.436 565.905 234.702 565.862 235.002C565.818 235.301 565.826 235.629 565.883 235.965C565.941 236.301 566.047 236.64 566.197 236.962C566.5 237.613 566.96 238.155 567.475 238.47C567.991 238.785 568.521 238.847 568.948 238.642ZM588.423 235.127C588.256 234.907 588.035 234.732 587.772 234.614C587.509 234.495 587.209 234.435 586.889 234.436C586.57 234.438 586.236 234.501 585.909 234.623C585.581 234.744 585.266 234.921 584.98 235.144C584.403 235.593 583.984 236.202 583.814 236.834C583.644 237.467 583.737 238.073 584.073 238.518C584.24 238.738 584.461 238.913 584.724 239.031C584.987 239.15 585.287 239.21 585.607 239.208C585.926 239.207 586.26 239.144 586.587 239.022C586.915 238.901 587.23 238.724 587.516 238.501C588.093 238.051 588.512 237.443 588.682 236.811C588.853 236.178 588.759 235.572 588.423 235.127ZM111.985 241.85C112.009 240.319 111.339 239.457 109.974 239.264C109.547 239.204 109.197 239.336 108.924 239.662C108.508 240.156 108.396 240.747 108.586 241.434C108.764 242.037 109.143 242.429 109.725 242.61C110.128 242.742 110.544 242.815 110.971 242.827C111.623 242.851 111.962 242.525 111.985 241.85ZM135.5 243.08C133.578 244.888 133.69 246.474 135.838 247.836C136.057 247.975 136.318 248.027 136.572 247.98C136.826 247.933 137.053 247.791 137.209 247.583C138.574 245.774 138.437 244.249 136.8 243.007C136.349 242.67 135.915 242.694 135.5 243.08ZM124.482 258.163C125.407 257.029 125.84 255.89 125.781 254.745C125.757 254.178 125.478 253.816 124.944 253.66C124.137 253.418 123.354 253.358 122.595 253.479C121.622 253.635 121.188 254.214 121.295 255.215C121.426 256.288 121.764 257.234 122.31 258.054C122.986 259.055 123.71 259.091 124.482 258.163ZM104.937 257.046C104.787 256.668 104.495 256.366 104.125 256.206C103.756 256.047 103.339 256.043 102.967 256.196L102.769 256.277C102.397 256.43 102.1 256.727 101.943 257.102C101.786 257.477 101.783 257.9 101.933 258.278L102.907 260.727C103.057 261.105 103.349 261.406 103.718 261.566C104.088 261.725 104.504 261.729 104.876 261.576L105.074 261.495C105.446 261.342 105.744 261.046 105.9 260.67C106.057 260.295 106.061 259.872 105.91 259.494L104.937 257.046ZM136.601 273.667C136.909 273.806 137.245 273.871 137.591 273.859C137.937 273.846 138.286 273.756 138.617 273.593C138.949 273.431 139.257 273.199 139.524 272.912C139.791 272.624 140.012 272.286 140.174 271.918C140.5 271.173 140.566 270.347 140.358 269.621C140.15 268.896 139.684 268.331 139.063 268.05C138.755 267.911 138.419 267.845 138.073 267.858C137.727 267.871 137.378 267.961 137.047 268.123C136.715 268.286 136.407 268.517 136.14 268.805C135.873 269.092 135.652 269.43 135.49 269.799C135.164 270.544 135.098 271.37 135.306 272.095C135.514 272.821 135.98 273.386 136.601 273.667ZM115.296 270.28L115.777 274.62C115.79 274.746 115.828 274.868 115.888 274.98C115.948 275.091 116.03 275.189 116.127 275.268C116.225 275.347 116.337 275.406 116.457 275.44C116.577 275.475 116.703 275.485 116.827 275.47L117.735 275.362C118.594 275.26 119.384 274.876 119.934 274.294C120.484 273.711 120.75 272.977 120.672 272.251L120.601 271.491C120.518 270.764 120.096 270.105 119.429 269.661C118.761 269.217 117.903 269.023 117.041 269.122L116.133 269.213C116.009 269.226 115.888 269.264 115.779 269.326C115.67 269.387 115.573 269.469 115.495 269.568C115.417 269.668 115.36 269.782 115.326 269.904C115.291 270.026 115.282 270.154 115.296 270.28ZM620.965 273.946C621.469 273.871 621.921 273.573 622.22 273.118C622.519 272.662 622.641 272.086 622.559 271.517C622.477 270.947 622.198 270.431 621.784 270.081C621.369 269.731 620.853 269.577 620.348 269.651C619.844 269.726 619.392 270.024 619.094 270.48C618.795 270.935 618.673 271.511 618.754 272.081C618.836 272.65 619.115 273.167 619.53 273.517C619.944 273.866 620.46 274.021 620.965 273.946ZM636.001 282.758C636.001 282.116 635.75 281.499 635.302 281.045C634.855 280.59 634.248 280.335 633.616 280.335C632.983 280.335 632.376 280.59 631.929 281.045C631.482 281.499 631.23 282.116 631.23 282.758C631.23 283.401 631.482 284.017 631.929 284.472C632.376 284.926 632.983 285.182 633.616 285.182C634.248 285.182 634.855 284.926 635.302 284.472C635.75 284.017 636.001 283.401 636.001 282.758ZM507.566 285.213C507.744 285.066 507.879 284.87 507.965 284.636C508.05 284.402 508.084 284.135 508.064 283.85C508.045 283.565 507.972 283.268 507.85 282.975C507.728 282.683 507.56 282.4 507.355 282.144C506.94 281.628 506.4 281.25 505.853 281.095C505.306 280.94 504.797 281.019 504.439 281.316C504.261 281.464 504.126 281.66 504.041 281.893C503.955 282.127 503.921 282.394 503.941 282.679C503.961 282.964 504.034 283.261 504.155 283.554C504.277 283.847 504.446 284.129 504.651 284.385C505.066 284.901 505.606 285.279 506.153 285.434C506.699 285.589 507.208 285.51 507.566 285.213ZM649.084 282.794C649.227 281.914 648.883 281.601 648.052 281.854C646.474 282.324 645.489 283.259 645.097 284.657C645.043 284.84 645.038 285.033 645.081 285.219C645.125 285.404 645.215 285.575 645.344 285.715C645.473 285.856 645.636 285.96 645.818 286.019C645.999 286.077 646.192 286.088 646.379 286.05C647.862 285.724 648.764 284.639 649.084 282.794ZM612.542 287.017C612.524 286.79 612.463 286.569 612.361 286.365C612.259 286.162 612.119 285.982 611.948 285.833C611.777 285.685 611.58 285.573 611.366 285.502C611.153 285.432 610.928 285.405 610.704 285.423L610.207 285.462C609.984 285.48 609.766 285.543 609.566 285.646C609.366 285.75 609.188 285.892 609.042 286.066C608.896 286.239 608.786 286.44 608.716 286.657C608.647 286.874 608.62 287.102 608.638 287.33L608.764 288.952C608.781 289.179 608.843 289.401 608.945 289.604C609.046 289.807 609.187 289.988 609.357 290.136C609.528 290.284 609.726 290.397 609.939 290.467C610.153 290.538 610.378 290.565 610.601 290.547L611.098 290.507C611.322 290.489 611.54 290.427 611.74 290.323C611.94 290.22 612.118 290.077 612.263 289.904C612.409 289.73 612.52 289.53 612.589 289.313C612.659 289.096 612.685 288.867 612.668 288.64L612.542 287.017ZM521.538 291.293C522.033 291.582 522.649 291.61 523.251 291.37C523.852 291.131 524.39 290.644 524.745 290.016C524.921 289.705 525.047 289.369 525.115 289.027C525.184 288.685 525.194 288.344 525.145 288.023C525.096 287.702 524.989 287.407 524.83 287.156C524.671 286.904 524.463 286.701 524.218 286.558C523.722 286.269 523.106 286.241 522.505 286.48C521.903 286.719 521.366 287.207 521.011 287.834C520.835 288.145 520.709 288.481 520.64 288.823C520.571 289.165 520.561 289.507 520.61 289.828C520.659 290.149 520.766 290.444 520.925 290.695C521.085 290.946 521.293 291.149 521.538 291.293ZM639.25 300.137C639.835 300.15 640.403 299.843 640.828 299.286C641.254 298.729 641.502 297.966 641.519 297.165C641.535 296.364 641.318 295.591 640.916 295.016C640.514 294.441 639.959 294.111 639.374 294.098C638.789 294.086 638.221 294.392 637.795 294.949C637.37 295.507 637.122 296.27 637.105 297.071C637.089 297.872 637.305 298.644 637.707 299.22C638.109 299.795 638.664 300.125 639.25 300.137ZM500.815 299.587C501.282 299.517 501.693 299.198 501.958 298.698C502.223 298.199 502.32 297.562 502.228 296.926C502.182 296.611 502.091 296.306 501.96 296.028C501.83 295.751 501.661 295.506 501.466 295.308C501.27 295.11 501.05 294.962 500.819 294.874C500.587 294.786 500.349 294.758 500.118 294.793C499.651 294.863 499.24 295.183 498.975 295.682C498.71 296.181 498.613 296.818 498.706 297.454C498.752 297.769 498.842 298.074 498.973 298.352C499.104 298.629 499.272 298.874 499.468 299.072C499.664 299.27 499.884 299.418 500.115 299.506C500.346 299.594 500.584 299.622 500.815 299.587ZM542.887 300.793C543.143 300.768 543.39 300.671 543.613 300.51C543.836 300.348 544.031 300.125 544.187 299.853C544.342 299.58 544.456 299.264 544.522 298.922C544.587 298.58 544.602 298.22 544.567 297.861C544.532 297.501 544.447 297.151 544.316 296.829C544.185 296.507 544.012 296.22 543.806 295.984C543.6 295.749 543.366 295.569 543.116 295.455C542.866 295.342 542.606 295.297 542.35 295.323C542.094 295.349 541.848 295.445 541.625 295.607C541.402 295.768 541.207 295.991 541.051 296.264C540.895 296.536 540.781 296.852 540.716 297.194C540.65 297.536 540.635 297.897 540.67 298.256C540.706 298.615 540.791 298.966 540.921 299.288C541.052 299.609 541.225 299.896 541.431 300.132C541.637 300.368 541.871 300.547 542.121 300.661C542.371 300.774 542.632 300.819 542.887 300.793ZM573.396 334.745C572.506 284.515 573.396 335.034 573.396 334.745C573.479 306.858 573.372 329.038 570.477 301.404C570.394 300.512 569.955 299.879 569.159 299.505L568.732 299.288C568.103 298.986 567.807 299.191 567.842 299.903C569.231 328.031 567.766 306.592 570.08 334.745C567.443 284.714 570.092 334.962 570.08 334.745H573.396ZM592.743 305.203C593.18 305.128 593.557 304.798 593.79 304.287C594.023 303.776 594.094 303.125 593.986 302.477C593.878 301.829 593.601 301.237 593.215 300.832C592.829 300.427 592.367 300.242 591.929 300.317C591.492 300.393 591.115 300.722 590.882 301.233C590.649 301.745 590.578 302.396 590.686 303.044C590.794 303.692 591.071 304.283 591.457 304.688C591.843 305.093 592.305 305.278 592.743 305.203ZM513.796 311.31C514.43 311.239 514.994 310.777 515.366 310.025C515.738 309.274 515.886 308.295 515.779 307.303C515.671 306.311 515.316 305.389 514.792 304.738C514.268 304.087 513.617 303.761 512.984 303.832C512.35 303.903 511.786 304.365 511.414 305.116C511.042 305.868 510.894 306.847 511.002 307.839C511.109 308.83 511.464 309.753 511.988 310.404C512.512 311.055 513.163 311.381 513.796 311.31ZM89.1677 319.594C89.6674 319.568 90.1314 319.237 90.4576 318.673C90.7838 318.11 90.9454 317.36 90.907 316.589C90.8685 315.818 90.6331 315.088 90.2525 314.561C89.8719 314.034 89.3773 313.752 88.8775 313.778C88.3778 313.804 87.9138 314.135 87.5876 314.698C87.2615 315.262 87.0998 316.011 87.1382 316.783C87.1767 317.554 87.4121 318.283 87.7927 318.81C88.1733 319.338 88.6679 319.619 89.1677 319.594ZM61.6053 328.831C61.8257 328.732 62.0144 328.567 62.1609 328.344C62.3074 328.121 62.4087 327.846 62.4591 327.533C62.5095 327.221 62.508 326.877 62.4546 326.522C62.4012 326.167 62.297 325.808 62.1479 325.465C61.8469 324.771 61.3815 324.186 60.854 323.836C60.3266 323.487 59.7803 323.403 59.3354 323.602C59.1151 323.701 58.9263 323.866 58.7798 324.089C58.6333 324.311 58.532 324.587 58.4816 324.899C58.4312 325.212 58.4328 325.556 58.4862 325.91C58.5396 326.265 58.6438 326.625 58.7928 326.968C59.0939 327.662 59.5593 328.247 60.0867 328.597C60.6142 328.946 61.1604 329.03 61.6053 328.831ZM73.8865 329.203C74.1747 329.234 74.4676 329.196 74.7484 329.089C75.0292 328.982 75.2925 328.808 75.5232 328.579C75.7539 328.349 75.9476 328.068 76.0931 327.75C76.2386 327.433 76.333 327.086 76.3711 326.73C76.4481 326.01 76.2908 325.294 75.9338 324.739C75.5767 324.185 75.0492 323.837 74.4672 323.773C74.179 323.741 73.8862 323.78 73.6054 323.887C73.3245 323.994 73.0612 324.167 72.8305 324.397C72.5998 324.626 72.4062 324.908 72.2607 325.225C72.1152 325.542 72.0207 325.889 71.9826 326.245C71.9056 326.965 72.0629 327.682 72.42 328.236C72.7771 328.791 73.3046 329.138 73.8865 329.203ZM209.011 330.605C209.224 330.526 209.413 330.387 209.567 330.195C209.722 330.003 209.838 329.762 209.91 329.485C209.982 329.209 210.008 328.902 209.987 328.583C209.966 328.264 209.897 327.939 209.786 327.627C209.561 326.995 209.174 326.453 208.711 326.118C208.247 325.784 207.745 325.685 207.314 325.843C207.101 325.922 206.912 326.061 206.757 326.253C206.603 326.445 206.486 326.686 206.414 326.963C206.342 327.239 206.316 327.546 206.338 327.864C206.359 328.183 206.427 328.508 206.539 328.821C206.764 329.452 207.151 329.995 207.614 330.33C208.078 330.664 208.58 330.763 209.011 330.605ZM188.617 330.557L188.653 334.572C188.653 334.678 188.674 334.783 188.714 334.88C188.755 334.978 188.814 335.067 188.888 335.141C188.963 335.215 189.052 335.273 189.149 335.312C189.246 335.351 189.35 335.37 189.454 335.367L189.988 335.349C190.702 335.339 191.383 335.066 191.883 334.588C192.383 334.111 192.662 333.467 192.658 332.799V332.257C192.656 331.923 192.584 331.592 192.444 331.285C192.305 330.977 192.103 330.698 191.848 330.465C191.593 330.231 191.291 330.047 190.96 329.923C190.628 329.799 190.274 329.738 189.917 329.743L189.383 329.761C189.178 329.766 188.983 329.852 188.84 330C188.697 330.149 188.617 330.349 188.617 330.557ZM98.4815 338.597C98.9704 338.514 99.3842 338.099 99.6319 337.445C99.8795 336.791 99.9407 335.95 99.802 335.108C99.7333 334.691 99.6176 334.286 99.4615 333.917C99.3054 333.548 99.112 333.221 98.8922 332.955C98.6725 332.689 98.4308 332.49 98.1808 332.368C97.9309 332.247 97.6777 332.205 97.4356 332.247C96.9467 332.33 96.5329 332.744 96.2852 333.398C96.0376 334.052 95.9764 334.893 96.1151 335.735C96.1838 336.152 96.2995 336.557 96.4556 336.926C96.6116 337.296 96.8051 337.623 97.0248 337.888C97.2446 338.154 97.4863 338.353 97.7362 338.475C97.9862 338.596 98.2395 338.638 98.4815 338.597Z" fill="black" fill-opacity="0.2"/>
</svg>
